<svg width="64" height="64" viewBox="0 0 64 64" fill="none" xmlns="http://www.w3.org/2000/svg">
<g clip-path="url(#clip0_1283_266)">
<rect width="64" height="64" rx="20" fill="black"/>
<path d="M27.9285 16.6218C27.9285 16.2119 27.8407 15.9874 27.665 15.9484C27.5088 15.8898 27.3136 15.841 27.0794 15.802H17.1533C16.4311 15.9581 15.865 16.2509 15.4551 16.6804C15.0452 17.0903 14.7231 17.5783 14.4888 18.1444C14.2546 18.7105 14.0789 19.3254 13.9618 19.9891C13.8447 20.6332 13.7178 21.2579 13.5811 21.863C13.5421 22.0387 13.5031 22.2534 13.464 22.5072C13.425 22.7414 13.3859 22.8781 13.3469 22.9171C13.3079 22.9757 13.2395 23.0049 13.1419 23.0049H12.1757C12.0586 23.0049 12 22.9659 12 22.8878V21.9216L13.0834 11.9077C13.1224 11.693 13.2103 11.488 13.3469 11.2928C13.4835 11.0976 13.6983 11 13.9911 11C14.1277 11 14.2546 11.039 14.3717 11.1171C14.5083 11.1952 14.6352 11.2928 14.7524 11.4099C14.8695 11.5075 14.9768 11.6051 15.0744 11.7027C15.1916 11.8003 15.3087 11.8686 15.4258 11.9077C15.66 12.0053 15.8748 12.0736 16.07 12.1127C16.2847 12.1322 16.5189 12.1419 16.7727 12.1419H47.4585C47.7123 12.1419 47.9367 12.1322 48.1319 12.1127C48.3467 12.0736 48.5711 12.0053 48.8054 11.9077C48.9225 11.8686 49.0299 11.8003 49.1275 11.7027C49.2446 11.6051 49.3617 11.5075 49.4788 11.4099C49.596 11.2928 49.7131 11.1952 49.8302 11.1171C49.9668 11.039 50.1035 11 50.2401 11C50.5329 11 50.7476 11.0976 50.8843 11.2928C51.0209 11.488 51.1088 11.693 51.1478 11.9077L52.2312 21.9216V22.8878C52.2312 22.9659 52.1726 23.0049 52.0555 23.0049H51.0892C50.9916 23.0049 50.9233 22.9757 50.8843 22.9171C50.8452 22.8781 50.8062 22.7414 50.7672 22.5072C50.7281 22.2534 50.6891 22.0387 50.65 21.863C50.5134 21.2579 50.3865 20.6332 50.2694 19.9891C50.1523 19.3254 49.9766 18.7105 49.7424 18.1444C49.5081 17.5783 49.186 17.0903 48.7761 16.6804C48.3662 16.2509 47.8001 15.9581 47.0778 15.802H37.1225C36.8883 15.841 36.6833 15.8898 36.5076 15.9484C36.3515 15.9874 36.2734 16.2119 36.2734 16.6218V47.7175C36.2734 48.3031 36.4198 48.8302 36.7126 49.2987C37.0054 49.7476 37.3958 50.1478 37.8838 50.4992C38.3913 50.8505 38.977 51.1336 39.6406 51.3483C40.3238 51.563 41.0461 51.7094 41.8074 51.7875C42.0221 51.807 42.2954 51.8168 42.6272 51.8168C42.9591 51.8168 43.2421 51.8168 43.4764 51.8168C43.574 51.8168 43.6325 51.8461 43.652 51.9046C43.6911 51.9632 43.7106 52.012 43.7106 52.051V53.193C43.7106 53.232 43.6911 53.2808 43.652 53.3394C43.6325 53.3979 43.574 53.4272 43.4764 53.4272H20.7255C20.6279 53.4272 20.5596 53.3979 20.5206 53.3394C20.5011 53.2808 20.4913 53.232 20.4913 53.193V52.051C20.4913 52.012 20.5011 51.9632 20.5206 51.9046C20.5596 51.8461 20.6279 51.8168 20.7255 51.8168C20.9403 51.8168 21.2135 51.8168 21.5454 51.8168C21.8968 51.8168 22.1798 51.807 22.3945 51.7875C23.1558 51.7094 23.8683 51.563 24.532 51.3483C25.2152 51.1336 25.8008 50.8505 26.2888 50.4992C26.7963 50.1478 27.1965 49.7476 27.4893 49.2987C27.7821 48.8302 27.9285 48.3031 27.9285 47.7175V16.6218Z" fill="white"/>
</g>
<defs>
<clipPath id="clip0_1283_266">
<rect width="64" height="64" fill="white"/>
</clipPath>
</defs>
</svg>
